<?xml version="1.0" standalone="no"?><!DOCTYPE svg PUBLIC "-//W3C//DTD SVG 1.1//EN" "http://www.w3.org/Graphics/SVG/1.1/DTD/svg11.dtd"><svg t="1597804173774" class="icon" viewBox="0 0 1024 1024" version="1.1" xmlns="http://www.w3.org/2000/svg" p-id="2337" xmlns:xlink="http://www.w3.org/1999/xlink" width="200" height="200"><defs><style type="text/css"></style></defs><path d="M783.04 268.48H240.928a32.768 32.768 0 0 0 0 65.312H783.04a32.768 32.768 0 0 0 0-65.312zM933.632 0H90.336A90.336 90.336 0 0 0 0 90.336v662.56a90.336 90.336 0 0 0 90.336 90.368H271.04v150.592a30.112 30.112 0 0 0 30.112 30.112c3.2 0 6.4 0 9.312-0.224a38.752 38.752 0 0 0 27.808-9.344l171.136-171.136h424.224A90.336 90.336 0 0 0 1024 752.896V90.336A90.336 90.336 0 0 0 933.632 0z m24.352 720a59.456 59.456 0 0 1-59.488 59.456H482.24a89.216 89.216 0 0 1-7.616 9.152l-141.024 142.048v-121.6a29.728 29.728 0 0 0-29.76-29.728H125.44a59.456 59.456 0 0 1-59.456-59.456V125.248A59.456 59.456 0 0 1 125.44 65.792h773.088a59.456 59.456 0 0 1 59.456 59.456V720z m-174.944-249.376H240.928a32.768 32.768 0 0 0 0 65.312H783.04a32.768 32.768 0 0 0 0-65.312z" p-id="2338"></path></svg>